<?xml version="1.0" standalone="no"?>
<!DOCTYPE svg PUBLIC "-//W3C//DTD SVG 20010904//EN"
 "http://www.w3.org/TR/2001/REC-SVG-20010904/DTD/svg10.dtd">
<svg version="1.0" xmlns="http://www.w3.org/2000/svg"
 width="4167.000000pt" height="4167.000000pt" viewBox="0 0 4167.000000 4167.000000"
 preserveAspectRatio="xMidYMid meet">
<metadata>
Created by potrace 1.11, written by Peter Selinger 2001-2013
</metadata>
<g transform="translate(0.000000,4167.000000) scale(0.100000,-0.100000)"
fill="#000000" stroke="none">
<path d="M20149 41035 c-2 -2 -83 -6 -179 -10 -96 -3 -195 -8 -220 -10 -25 -2
-99 -6 -165 -10 -159 -8 -334 -21 -430 -30 -22 -2 -74 -7 -115 -10 -41 -3 -93
-8 -115 -10 -22 -2 -67 -6 -100 -9 -33 -3 -76 -8 -95 -11 -19 -2 -66 -7 -105
-11 -38 -3 -77 -8 -85 -9 -8 -1 -44 -6 -80 -10 -36 -3 -76 -8 -90 -10 -14 -2
-50 -6 -80 -10 -30 -3 -102 -13 -160 -21 -58 -8 -123 -17 -145 -20 -22 -3 -51
-7 -65 -9 -14 -2 -45 -7 -70 -10 -25 -3 -52 -8 -60 -10 -8 -2 -37 -7 -65 -10
-79 -10 -108 -14 -135 -20 -13 -2 -42 -7 -65 -10 -22 -3 -47 -8 -55 -10 -8 -2
-35 -7 -60 -10 -25 -4 -67 -11 -95 -16 -27 -6 -63 -12 -79 -14 -15 -3 -35 -6
-45 -9 -9 -3 -36 -8 -61 -11 -25 -4 -63 -10 -85 -15 -22 -5 -56 -12 -75 -15
-19 -3 -53 -10 -75 -15 -22 -5 -56 -12 -75 -15 -19 -3 -85 -17 -147 -30 -61
-14 -122 -26 -135 -29 -13 -2 -124 -27 -248 -56 -124 -28 -232 -53 -241 -55
-9 -2 -115 -29 -235 -60 -120 -31 -226 -58 -234 -60 -8 -2 -112 -31 -230 -65
-118 -34 -219 -63 -225 -64 -5 -2 -23 -6 -40 -11 -78 -20 -972 -310 -1005
-326 -8 -4 -73 -28 -145 -54 -71 -25 -152 -55 -180 -66 -27 -10 -104 -39 -170
-64 -66 -25 -128 -50 -137 -55 -10 -6 -23 -10 -30 -10 -7 -1 -31 -9 -53 -20
-22 -11 -43 -19 -46 -20 -4 0 -24 -8 -45 -17 -22 -9 -41 -17 -44 -18 -3 -1
-16 -7 -30 -13 -14 -6 -106 -45 -205 -86 -99 -40 -210 -88 -248 -105 -37 -17
-69 -31 -72 -31 -2 0 -43 -18 -92 -41 -48 -23 -131 -60 -183 -84 -381 -172
-1103 -538 -1373 -697 -26 -15 -50 -28 -52 -28 -7 0 -495 -284 -613 -357 -617
-379 -1152 -742 -1677 -1137 -110 -83 -205 -155 -212 -161 -6 -5 -26 -21 -44
-35 -29 -22 -227 -179 -343 -273 -138 -111 -530 -442 -582 -492 -11 -11 -52
-47 -90 -80 -76 -67 -155 -137 -195 -175 -15 -14 -75 -70 -135 -125 -227 -209
-716 -692 -888 -876 -33 -35 -89 -96 -125 -134 -120 -129 -286 -310 -331 -361
-14 -16 -72 -83 -130 -149 -58 -66 -141 -163 -185 -215 -44 -52 -82 -97 -86
-100 -6 -5 -226 -275 -268 -328 -14 -18 -31 -39 -36 -45 -87 -99 -459 -593
-658 -872 -86 -121 -160 -224 -164 -230 -13 -16 -417 -625 -449 -677 -16 -26
-74 -121 -130 -210 -210 -339 -535 -903 -641 -1113 -11 -22 -57 -110 -102
-195 -115 -219 -293 -582 -402 -817 -16 -35 -43 -93 -60 -130 -26 -56 -91
-202 -154 -348 -7 -16 -22 -51 -34 -77 -11 -26 -21 -50 -21 -53 0 -3 -9 -24
-19 -48 -50 -108 -197 -475 -292 -729 -184 -490 -417 -1203 -533 -1628 -13
-47 -22 -82 -52 -190 -21 -74 -173 -682 -177 -705 -3 -16 -10 -45 -16 -63 -5
-18 -10 -35 -10 -37 0 -3 -5 -29 -10 -58 -6 -28 -13 -61 -15 -72 -2 -11 -9
-38 -14 -60 -6 -22 -13 -53 -16 -70 -2 -16 -9 -52 -15 -80 -6 -27 -20 -93 -30
-145 -11 -52 -22 -106 -25 -120 -3 -14 -8 -43 -11 -65 -3 -22 -7 -47 -10 -55
-2 -8 -7 -28 -10 -45 -19 -109 -55 -315 -59 -340 -3 -16 -8 -46 -11 -65 -3
-19 -8 -48 -11 -65 -3 -16 -6 -37 -9 -45 -2 -8 -7 -42 -10 -75 -4 -32 -8 -62
-10 -65 -1 -3 -6 -32 -9 -65 -4 -33 -11 -85 -16 -115 -5 -30 -12 -80 -15 -110
-4 -30 -8 -57 -10 -60 -1 -3 -6 -36 -10 -73 -3 -37 -8 -76 -10 -85 -1 -9 -6
-46 -10 -82 -4 -36 -9 -72 -10 -80 -2 -8 -6 -49 -10 -90 -4 -41 -9 -83 -10
-92 -2 -9 -7 -52 -10 -95 -4 -43 -9 -86 -11 -96 -1 -9 -6 -54 -9 -100 -4 -45
-8 -98 -10 -117 -9 -96 -28 -341 -40 -525 -11 -169 -17 -304 -31 -665 -5 -136
-5 -1101 0 -1215 2 -38 7 -149 10 -245 4 -96 9 -202 11 -235 2 -33 7 -103 10
-155 15 -254 16 -261 30 -435 3 -33 7 -87 10 -120 5 -66 13 -151 20 -205 2
-19 7 -62 10 -95 3 -33 8 -79 10 -102 3 -24 7 -63 10 -88 6 -52 13 -112 20
-170 3 -22 8 -60 10 -85 3 -25 7 -58 10 -75 2 -16 7 -52 10 -80 4 -27 9 -61
11 -75 2 -14 6 -45 9 -70 3 -25 8 -56 10 -70 3 -14 7 -43 10 -65 6 -41 31
-207 40 -260 3 -16 9 -57 15 -90 6 -33 12 -71 14 -85 14 -90 58 -326 92 -500
13 -69 26 -135 29 -148 2 -13 6 -31 9 -40 3 -9 8 -33 11 -52 3 -19 12 -63 20
-98 8 -34 17 -74 20 -90 3 -21 51 -226 110 -474 17 -73 108 -429 115 -453 5
-16 33 -113 60 -215 28 -102 55 -196 60 -210 5 -14 18 -59 31 -100 114 -391
316 -986 483 -1425 42 -110 81 -209 86 -220 5 -11 39 -94 75 -185 37 -91 73
-178 80 -195 7 -16 41 -95 75 -175 34 -80 74 -170 87 -200 14 -30 58 -127 98
-215 154 -339 375 -786 540 -1090 183 -337 182 -337 287 -520 309 -539 752
-1234 1025 -1610 24 -33 76 -106 116 -161 85 -120 121 -169 174 -239 5 -5 54
-71 109 -145 94 -126 166 -218 282 -365 26 -33 51 -65 57 -72 5 -6 33 -39 60
-74 75 -93 353 -428 394 -475 20 -22 49 -56 65 -75 237 -276 671 -742 982
-1053 156 -156 571 -553 644 -616 14 -12 45 -40 70 -64 25 -23 86 -77 135
-121 50 -43 92 -82 95 -85 11 -13 421 -361 525 -445 61 -49 112 -92 115 -95
33 -38 695 -541 960 -729 102 -72 191 -136 198 -142 67 -56 1009 -669 1028
-669 2 0 35 -20 72 -44 84 -54 359 -216 367 -216 4 0 19 -8 33 -19 15 -10 47
-29 72 -43 25 -14 101 -57 170 -95 261 -146 525 -285 855 -448 339 -167 984
-465 1009 -465 3 0 29 -11 58 -24 114 -51 148 -66 153 -66 3 0 24 -9 48 -19
108 -50 632 -251 912 -350 164 -59 733 -246 885 -292 58 -17 141 -42 185 -55
229 -69 871 -240 970 -258 11 -2 47 -11 80 -19 33 -9 94 -23 135 -32 41 -9 84
-18 95 -21 40 -10 111 -25 140 -30 17 -3 36 -7 44 -10 19 -6 358 -74 401 -81
19 -2 51 -8 70 -13 19 -5 58 -12 85 -16 28 -3 53 -8 56 -10 5 -3 407 -71 524
-89 110 -16 306 -44 354 -50 30 -4 61 -8 70 -10 15 -3 87 -12 161 -20 39 -5
100 -12 158 -20 50 -7 105 -13 182 -20 36 -3 81 -8 100 -10 19 -2 64 -7 100
-10 36 -3 83 -8 105 -10 70 -7 239 -21 355 -30 152 -11 217 -15 310 -20 52 -3
136 -7 185 -10 512 -28 1539 -28 2045 0 215 12 301 17 345 20 28 2 86 7 130
10 44 3 103 8 130 10 28 3 84 7 125 10 41 3 93 8 115 10 22 2 66 7 98 10 108
10 172 16 207 20 19 2 62 7 95 10 33 4 71 8 85 10 14 2 52 7 85 10 33 3 71 8
85 10 14 2 43 7 65 9 112 14 133 17 170 22 47 7 68 10 155 23 36 6 88 13 115
17 28 3 59 8 70 10 10 2 37 6 60 9 22 3 63 10 90 15 28 5 66 12 85 14 19 3 44
7 55 10 11 2 42 7 69 10 27 4 52 9 55 10 3 2 29 7 56 10 59 8 765 149 803 160
9 3 28 7 42 10 14 2 54 11 90 19 36 9 153 37 260 63 309 74 1006 263 1120 303
14 5 86 28 160 51 74 23 142 44 150 47 8 3 20 7 25 8 19 5 311 103 445 150
380 133 1060 396 1266 490 16 8 66 30 110 48 43 19 105 46 136 61 31 14 59 26
61 26 3 0 54 23 113 51 60 28 125 58 144 66 356 159 1062 523 1485 766 77 45
151 87 165 94 14 8 39 23 55 33 17 11 37 23 45 27 54 28 402 241 620 380 191
121 683 451 725 485 6 5 73 53 150 107 77 55 145 103 150 108 6 5 44 33 85 63
41 29 79 58 85 62 5 5 35 27 65 49 30 22 64 48 75 57 11 10 45 35 75 57 30 22
64 47 75 57 11 9 70 55 130 102 61 48 117 92 125 99 8 7 60 48 115 92 55 44
105 85 110 91 6 5 42 35 80 66 39 31 79 65 90 75 11 10 47 40 80 68 33 27 74
62 90 77 17 14 40 35 51 45 12 10 45 38 73 62 29 24 67 58 84 75 18 17 48 44
67 60 19 15 55 47 80 70 25 22 72 65 105 95 361 329 1014 982 1261 1260 21 24
50 56 64 70 14 14 59 64 100 110 41 47 82 92 90 101 8 8 40 45 70 80 54 64
105 122 125 144 6 6 69 81 140 166 71 85 132 157 135 160 3 3 43 52 89 110 45
58 92 115 102 128 46 54 275 351 395 512 282 378 525 727 800 1152 180 278
336 536 515 848 71 124 134 232 139 240 6 8 13 22 17 30 3 8 25 49 48 90 23
41 65 118 93 170 28 52 73 138 101 190 59 112 306 606 349 700 16 36 51 110
77 165 71 150 161 354 269 610 54 127 101 239 106 250 38 86 165 416 245 635
37 102 73 199 80 215 12 28 205 598 210 620 1 6 5 17 8 25 13 33 139 458 200
675 88 312 236 901 271 1075 2 14 18 90 35 169 17 80 33 154 35 165 2 12 15
80 29 151 29 144 31 153 52 275 26 143 55 312 59 344 2 17 7 42 10 56 3 14 8
43 11 65 3 22 10 65 15 95 5 30 12 80 15 110 4 30 8 57 10 60 1 3 6 32 9 65 4
33 9 71 11 85 4 24 21 157 30 230 2 19 7 53 9 75 14 103 27 223 31 269 3 28 7
71 9 96 33 299 60 659 81 1065 27 514 27 1534 0 2030 -8 145 -16 289 -20 350
-9 136 -41 526 -50 605 -2 19 -7 64 -10 100 -4 36 -8 79 -10 95 -2 17 -6 62
-10 100 -4 39 -9 78 -10 87 -2 9 -7 48 -10 85 -4 37 -9 77 -11 88 -2 11 -7 45
-10 75 -3 30 -7 62 -9 70 -2 8 -7 44 -10 80 -4 36 -8 67 -10 70 -2 3 -6 34
-10 70 -4 36 -8 67 -10 70 -2 3 -6 33 -10 65 -3 33 -8 67 -10 75 -3 8 -7 33
-10 55 -10 64 -15 97 -25 155 -5 30 -12 69 -14 85 -15 93 -46 266 -55 305 -5
25 -12 61 -15 80 -10 61 -16 94 -22 120 -3 14 -8 36 -10 50 -7 37 -34 169 -44
215 -11 49 -48 220 -54 255 -3 14 -10 43 -16 65 -5 22 -12 54 -15 70 -3 17
-39 163 -80 325 -41 162 -78 306 -81 320 -9 43 -132 477 -186 655 -61 204
-277 860 -318 965 -16 41 -45 120 -65 175 -46 126 -143 384 -155 410 -5 11
-28 67 -50 125 -23 58 -48 119 -55 135 -7 17 -29 71 -50 120 -20 50 -42 104
-50 120 -7 17 -56 127 -108 245 -186 422 -439 944 -634 1310 -42 77 -188 344
-227 415 -13 22 -37 65 -54 95 -16 30 -74 129 -128 220 -53 91 -102 174 -108
185 -6 11 -18 31 -27 45 -43 67 -226 364 -243 393 -25 42 -409 620 -477 717
-99 142 -309 434 -342 475 -4 6 -67 89 -139 185 -165 219 -431 554 -571 720
-12 14 -44 52 -72 85 -27 33 -59 71 -70 84 -11 13 -54 63 -95 111 -41 47 -89
102 -105 122 -31 37 -140 157 -250 278 -33 36 -78 85 -100 109 -22 25 -76 83
-121 130 -45 47 -100 106 -123 131 -79 84 -358 365 -533 535 -148 145 -245
237 -433 410 -53 49 -176 160 -230 206 -27 24 -56 51 -65 59 -9 8 -63 55 -120
105 -58 49 -110 94 -116 100 -6 5 -31 26 -55 46 -199 165 -245 204 -249 209
-3 3 -75 61 -160 129 -85 67 -170 134 -187 149 -154 122 -445 339 -748 558
-123 89 -613 424 -620 424 -2 0 -40 25 -84 55 -45 30 -184 119 -309 196 -125
78 -238 148 -252 157 -14 9 -34 22 -45 28 -11 6 -66 39 -123 73 -57 33 -105
61 -108 61 -2 0 -27 15 -56 33 -29 19 -60 37 -68 40 -8 4 -31 17 -50 28 -80
48 -335 189 -497 275 -46 24 -121 64 -167 89 -115 61 -432 219 -591 295 -71
34 -157 75 -189 91 -33 16 -65 29 -73 29 -7 0 -13 5 -13 10 0 6 -6 10 -14 10
-8 0 -36 11 -63 24 -45 23 -80 38 -190 87 -27 11 -66 29 -88 39 -22 10 -101
44 -175 75 -74 32 -153 65 -175 75 -109 48 -791 314 -835 325 -8 2 -71 25
-140 50 -69 26 -129 48 -135 49 -5 2 -17 6 -25 9 -35 15 -643 213 -685 223 -5
2 -64 19 -130 39 -200 61 -338 101 -381 110 -12 3 -59 16 -105 29 -75 22 -256
70 -305 81 -11 2 -91 22 -179 45 -88 22 -169 42 -180 44 -11 2 -50 11 -86 20
-37 8 -78 17 -90 20 -13 2 -51 11 -84 19 -33 9 -73 18 -90 20 -16 3 -50 10
-75 16 -25 5 -61 13 -80 16 -19 3 -43 8 -52 11 -20 6 -10 4 -218 43 -91 18
-185 36 -210 41 -40 9 -97 18 -200 35 -19 3 -42 8 -50 10 -8 2 -33 6 -55 10
-22 3 -94 14 -160 25 -66 11 -185 29 -265 40 -80 11 -156 22 -170 25 -14 2
-47 6 -75 10 -27 3 -61 8 -75 10 -14 2 -45 6 -70 9 -118 14 -220 26 -270 31
-30 3 -66 8 -80 10 -14 2 -57 7 -97 10 -40 4 -85 8 -100 10 -15 2 -62 6 -103
10 -41 3 -91 8 -110 10 -19 2 -75 7 -125 11 -49 3 -106 8 -125 9 -19 2 -82 6
-140 10 -58 4 -125 8 -150 10 -25 2 -101 7 -170 10 -69 4 -163 9 -210 12 -100
6 -1556 13 -1561 8z"/>
</g>
</svg>
